<?xml version="1.0" encoding="utf-8"?>
<!-- Generator: Adobe Illustrator 25.2.1, SVG Export Plug-In . SVG Version: 6.00 Build 0)  -->
<svg version="1.1" id="Camada_1" xmlns="http://www.w3.org/2000/svg" xmlns:xlink="http://www.w3.org/1999/xlink" x="0px" y="0px"
	 viewBox="0 0 512 512" style="enable-background:new 0 0 512 512;" xml:space="preserve">
<g transform="translate(0.000000,512.000000) scale(0.100000,-0.100000)">
	<path d="M985.1,5113c-131-16-355-77-439.1-120C349,4893,92,4465,23,4120c-24-119-24-374,1-490c37-171,120-419,276-822
		c182-471,519.1-947,1040.1-1468c450.1-451,845.1-749,1250.2-944c142-68,198-91,527.1-212C3524.4,34,3646.5,5,3880.5,6
		c186,0,269,13,434.1,71c292,101,601.1,315,679.1,469c51,100,109,327,122,475c15,163,15,163-415.1,399c-336,184-449.1,250-559.1,323
		c-181,121-238,137-328,95c-61-29-185-153-314-313c-121-152-240-275-288-300c-80-41-150-16-433.1,154c-361,216-566.1,371-796.1,600
		c-228,228-386,437-603.1,799c-170,283-195,353-154,433c25,48,148,167,300,289c160,128,285,254,314,314c41,89,24,147-96,327
		c-73,110-140,225-323,559c-184,335-208,371-263,403C1127.1,5119,1064.1,5123,985.1,5113z"/>
</g>
</svg>
