<?xml version="1.0" standalone="no"?>
<!DOCTYPE svg PUBLIC "-//W3C//DTD SVG 20010904//EN"
 "http://www.w3.org/TR/2001/REC-SVG-20010904/DTD/svg10.dtd">
<svg version="1.0" xmlns="http://www.w3.org/2000/svg"
 width="512.000000pt" height="512.000000pt" viewBox="0 0 512.000000 512.000000"
 preserveAspectRatio="xMidYMid meet">

<g transform="translate(0.000000,512.000000) scale(0.100000,-0.100000)"
fill="#000000" stroke="none">
<path d="M1690 5106 c-150 -41 -268 -165 -299 -314 -6 -29 -11 -138 -11 -241
0 -175 1 -190 21 -215 26 -33 79 -36 109 -6 19 19 20 33 20 213 0 222 9 269
66 335 20 24 55 53 78 65 l41 22 1150 0 c1123 0 1151 0 1190 -20 21 -10 56
-36 76 -57 70 -73 69 -56 69 -783 0 -727 1 -710 -69 -783 -75 -77 -73 -76
-466 -82 -404 -6 -382 -1 -462 -107 l-48 -64 -6 133 c-6 144 -18 189 -69 264
l-30 45 0 160 0 159 56 0 c48 0 59 4 85 29 l29 29 0 172 0 172 -29 29 c-25 24
-38 29 -79 29 -27 0 -51 3 -55 6 -8 9 12 61 30 76 9 7 52 16 95 19 68 5 83 9
106 32 27 27 27 28 30 190 3 182 -2 201 -58 230 -29 15 -49 17 -120 12 -106
-8 -176 -27 -262 -72 -85 -44 -184 -147 -227 -235 -30 -62 -60 -176 -61 -230
0 -27 -2 -28 -55 -28 -46 0 -60 -4 -80 -24 -32 -32 -37 -68 -33 -235 l3 -143
33 -29 c26 -24 41 -29 82 -29 l50 0 0 -90 0 -90 -530 0 -530 0 0 200 c0 200 0
201 -25 225 -27 28 -42 30 -78 14 -42 -19 -47 -48 -47 -249 l0 -189 -432 -3
c-480 -4 -482 -4 -584 -72 -66 -44 -125 -118 -156 -193 l-23 -58 -3 -668 c-3
-741 -3 -739 61 -846 41 -68 95 -115 177 -155 l65 -31 342 -3 342 -3 37 -47
c54 -68 72 -82 109 -82 39 0 68 29 68 69 0 41 -92 163 -141 187 -33 17 -72 20
-387 24 -275 4 -355 8 -375 19 -55 31 -88 63 -116 113 l-29 53 -3 654 c-3 721
-3 719 59 794 17 21 54 50 83 65 l51 27 1140 0 c1031 0 1143 -2 1176 -16 56
-26 110 -79 135 -134 l24 -50 0 -655 c0 -421 -4 -668 -10 -692 -16 -57 -69
-119 -129 -150 l-53 -28 -317 0 c-174 0 -334 -5 -355 -10 -71 -16 -61 -5 -330
-360 l-139 -184 -26 34 c-63 83 -86 103 -122 102 -40 -1 -69 -31 -69 -71 0
-34 97 -167 141 -195 38 -24 103 -25 145 -3 19 10 71 70 130 148 l99 133 5
-250 c5 -230 7 -253 29 -307 30 -75 117 -170 190 -206 91 -46 138 -51 469 -51
l307 0 190 -252 c105 -138 203 -261 218 -272 36 -26 121 -29 158 -5 14 9 112
132 219 273 l193 256 311 0 c331 0 378 5 468 51 58 29 130 100 161 157 54 99
57 130 57 589 l0 422 -22 25 c-33 36 -75 39 -108 6 -19 -19 -20 -33 -20 -443
0 -472 -2 -491 -65 -564 -19 -23 -56 -52 -83 -65 -46 -22 -55 -23 -399 -28
-335 -5 -353 -6 -380 -26 -15 -11 -92 -105 -171 -210 -79 -104 -165 -217 -191
-252 l-48 -62 -191 255 c-152 202 -200 259 -231 275 -38 19 -59 20 -359 20
-361 0 -394 5 -464 68 -23 20 -52 60 -64 87 -23 49 -24 55 -24 381 0 320 1
332 21 358 l20 26 329 0 328 0 4 -217 c3 -215 4 -219 31 -275 36 -74 119 -150
194 -178 54 -20 70 -21 422 -18 349 3 368 4 412 24 97 45 170 136 195 243 19
79 19 643 0 722 -25 107 -98 198 -195 243 -44 20 -63 21 -388 24 l-343 3 0
119 0 120 711 0 c517 0 722 -3 751 -12 50 -15 123 -79 150 -132 15 -29 23 -66
26 -124 4 -73 7 -85 30 -102 34 -27 68 -25 99 6 25 25 26 29 20 113 -9 149
-68 256 -181 332 -107 71 -77 69 -883 69 l-723 0 0 118 0 117 103 135 102 135
340 5 c316 5 344 7 391 26 111 46 181 112 232 221 l27 58 0 710 0 710 -32 67
c-36 76 -108 155 -171 187 -103 52 -71 51 -1282 50 -862 0 -1136 -3 -1170 -13z
m1478 -484 l3 -82 -32 0 c-85 0 -170 -55 -210 -137 -17 -35 -23 -65 -23 -124
-1 -72 1 -81 26 -105 21 -21 39 -28 82 -32 l56 -4 0 -79 0 -79 -44 0 c-109 0
-126 -31 -126 -225 0 -74 -3 -135 -6 -135 -4 0 -23 4 -43 10 -20 5 -53 12 -73
15 l-38 6 0 135 0 136 -29 29 c-26 25 -37 29 -85 29 l-56 0 0 79 0 79 60 4
c92 7 103 23 111 153 6 87 12 115 37 169 59 125 178 217 304 236 85 12 83 15
86 -78z m662 -2602 c47 -24 84 -71 99 -125 7 -25 11 -153 11 -335 0 -182 -4
-310 -11 -335 -15 -54 -52 -101 -100 -125 -38 -20 -55 -21 -388 -18 l-349 3
-39 31 c-21 16 -48 50 -60 74 -22 42 -23 56 -23 268 l0 224 50 45 c64 58 118
163 126 251 l7 62 319 0 c299 0 321 -1 358 -20z"/>
<path d="M3709 1937 c-43 -33 -49 -84 -15 -123 62 -73 179 5 134 89 -6 12 -18
27 -27 34 -21 16 -71 16 -92 0z"/>
<path d="M3354 1824 c-57 -20 -114 -72 -149 -135 -25 -46 -29 -65 -29 -129 0
-64 4 -83 29 -129 77 -140 233 -190 373 -120 102 50 155 136 155 249 0 113
-53 199 -155 249 -70 35 -152 41 -224 15z m166 -150 c59 -36 81 -121 45 -181
-56 -95 -198 -80 -235 25 -13 37 -13 47 0 84 27 77 121 112 190 72z"/>
<path d="M1172 3211 c-69 -24 -156 -84 -190 -132 l-27 -39 -81 0 c-66 0 -86
-4 -107 -20 -34 -27 -43 -70 -22 -114 15 -32 15 -37 1 -58 -22 -31 -20 -70 5
-102 23 -30 107 -76 138 -76 13 0 26 -15 42 -47 27 -55 78 -115 133 -155 27
-19 46 -45 62 -84 77 -190 240 -343 435 -409 108 -36 265 -45 379 -21 171 36
338 151 440 302 61 92 65 130 21 175 -34 33 -55 35 -137 14 -32 -8 -59 -13
-61 -11 -3 2 9 31 26 64 93 184 99 419 18 604 -28 63 -67 98 -110 98 -24 0
-40 -10 -71 -47 -92 -106 -157 -163 -229 -197 -114 -55 -108 -56 -141 19 -48
111 -140 197 -253 236 -74 25 -198 25 -271 0z m254 -155 c85 -40 133 -112 159
-239 8 -40 39 -67 78 -67 105 0 299 87 401 181 l65 60 10 -38 c20 -76 22 -148
8 -228 -19 -103 -50 -172 -121 -265 -64 -84 -68 -115 -20 -157 22 -20 36 -23
117 -23 l92 -1 -55 -50 c-101 -92 -226 -139 -370 -139 -151 0 -279 49 -383
149 -77 72 -120 137 -153 229 -25 66 -32 77 -78 106 -67 44 -84 64 -126 149
-28 57 -41 74 -65 82 -26 9 -30 15 -30 48 0 35 1 37 34 37 25 0 40 8 60 32 61
74 129 134 161 145 64 20 160 15 216 -11z"/>
<path d="M1203 2905 c-42 -30 -34 -121 12 -139 87 -33 160 57 104 128 -24 30
-80 36 -116 11z"/>
</g>
</svg>
