<?xml version="1.0" standalone="no"?>
<!DOCTYPE svg PUBLIC "-//W3C//DTD SVG 20010904//EN"
 "http://www.w3.org/TR/2001/REC-SVG-20010904/DTD/svg10.dtd">
<svg version="1.0" xmlns="http://www.w3.org/2000/svg"
 width="512.000000pt" height="512.000000pt" viewBox="0 0 512.000000 512.000000"
 preserveAspectRatio="xMidYMid meet">

<g transform="translate(0.000000,512.000000) scale(0.100000,-0.100000)"
fill="#000000" stroke="none">
<path d="M985 5113 c-131 -16 -355 -77 -439 -120 -197 -100 -454 -528 -523
-873 -24 -119 -24 -374 1 -490 37 -171 120 -419 276 -822 182 -471 519 -947
1040 -1468 450 -451 845 -749 1250 -944 142 -68 198 -91 527 -212 407 -150
529 -179 763 -178 186 0 269 13 434 71 292 101 601 315 679 469 51 100 109
327 122 475 15 163 15 163 -415 399 -336 184 -449 250 -559 323 -181 121 -238
137 -328 95 -61 -29 -185 -153 -314 -313 -121 -152 -240 -275 -288 -300 -80
-41 -150 -16 -433 154 -361 216 -566 371 -796 600 -228 228 -386 437 -603 799
-170 283 -195 353 -154 433 25 48 148 167 300 289 160 128 285 254 314 314 41
89 24 147 -96 327 -73 110 -140 225 -323 559 -184 335 -208 371 -263 403 -30
16 -93 20 -172 10z"/>
</g>
</svg>
