<?xml version="1.0" encoding="utf-8"?>
<!-- Generator: Adobe Illustrator 25.2.1, SVG Export Plug-In . SVG Version: 6.00 Build 0)  -->
<svg version="1.1" id="Camada_1" xmlns="http://www.w3.org/2000/svg" xmlns:xlink="http://www.w3.org/1999/xlink" x="0px" y="0px"
	 viewBox="0 0 48 48" style="enable-background:new 0 0 48 48;" xml:space="preserve">
<style type="text/css">
	.st0{fill:#2181C4;}
	.st1{fill:#E2AD13;}
	.st2{fill:#CE9E25;}
</style>
<g>
	<g>
		<path class="st0" d="M33.56,23.15c-2.59,2.41-6.03,3.91-9.79,3.91s-7.28-1.5-9.79-3.91c-5.69,4.11-9.54,11.72-9.54,20.44
			c0,0.6,0,1.2,0.08,1.8H43.1c0-0.6,0.08-1.2,0.08-1.8C43.1,34.87,39.25,27.26,33.56,23.15z"/>
		<path class="st1" d="M23.77,0C15.82,0,9.3,5.61,9.3,12.43c0,3.61,1.76,6.81,4.6,9.12c2.59,2.1,6.03,3.31,9.79,3.31
			s7.28-1.3,9.79-3.31c2.85-2.3,4.6-5.51,4.6-9.12C38.17,5.61,31.72,0,23.77,0z"/>
	</g>
	<path class="st2" d="M38.17,33.67l0.08,3.21l0.17,0.8l0.5,0.8l-0.67,0.4l0.75,0.6l-0.67,0.7l0.84,0.4l-0.84,0.6l0.67,0.4l-0.67,0.5
		l1.09,0.9l-0.67,0.8l0.67,0.6l-0.5,0.5l-0.33,0.4l0.59,0.8l-0.92,0.7L43.1,48l-0.42-14.53c1.09-0.6,1.76-1.6,1.76-2.71
		c-0.08-1.8-1.92-3.21-4.27-3.21c-2.26,0-4.1,1.6-4.02,3.41C36.32,32.17,37.08,33.17,38.17,33.67z"/>
</g>
</svg>
