<?xml version="1.0" encoding="utf-8"?>
<!-- Generator: Adobe Illustrator 27.0.0, SVG Export Plug-In . SVG Version: 6.00 Build 0)  -->
<svg version="1.1" id="Camada_1" xmlns="http://www.w3.org/2000/svg" xmlns:xlink="http://www.w3.org/1999/xlink" x="0px" y="0px"
	 viewBox="0 0 595.28 841.89" style="enable-background:new 0 0 595.28 841.89;" xml:space="preserve">
<style type="text/css">
	.st0{fill:#010202;}
	.st1{fill:#020203;}
	.st2{fill:#FFFFFF;}
</style>
<g>
	<g>
		<path class="st0" d="M281.88,449.3c-6.71,0-12.17-5.46-12.17-12.17v-32.25c0-6.71,5.46-12.17,12.17-12.17h32.25
			c6.71,0,12.17,5.46,12.17,12.17v32.25c0,6.71-5.46,12.17-12.17,12.17H281.88z"/>
		<path class="st1" d="M314.13,393.2c6.44,0,11.67,5.24,11.67,11.67v32.25c0,6.44-5.24,11.67-11.67,11.67h-32.25
			c-6.44,0-11.67-5.24-11.67-11.67v-32.25c0-6.44,5.24-11.67,11.67-11.67H314.13 M314.13,392.2h-32.25c-7,0-12.67,5.67-12.67,12.67
			v32.25c0,7,5.67,12.67,12.67,12.67h32.25c7,0,12.67-5.67,12.67-12.67v-32.25C326.8,397.87,321.13,392.2,314.13,392.2L314.13,392.2
			z"/>
	</g>
	<g>
		<circle class="st2" cx="316.43" cy="402.94" r="3.62"/>
		<path class="st1" d="M316.43,399.82c1.72,0,3.12,1.4,3.12,3.12s-1.4,3.12-3.12,3.12s-3.12-1.4-3.12-3.12
			S314.71,399.82,316.43,399.82 M316.43,398.82c-2.28,0-4.12,1.85-4.12,4.12c0,2.28,1.85,4.12,4.12,4.12s4.12-1.85,4.12-4.12
			C320.55,400.67,318.7,398.82,316.43,398.82L316.43,398.82z"/>
	</g>
	<g>
		<path class="st2" d="M298,435.18c-7.61,0-13.81-6.19-13.81-13.81s6.19-13.81,13.81-13.81c7.61,0,13.81,6.19,13.81,13.81
			S305.61,435.18,298,435.18z"/>
		<path class="st1" d="M298,408.06c7.34,0,13.31,5.97,13.31,13.31c0,7.34-5.97,13.31-13.31,13.31s-13.31-5.97-13.31-13.31
			C284.69,414.03,290.66,408.06,298,408.06 M298,407.06c-7.9,0-14.31,6.4-14.31,14.31c0,7.9,6.4,14.31,14.31,14.31
			c7.9,0,14.31-6.4,14.31-14.31C312.31,413.47,305.9,407.06,298,407.06L298,407.06z"/>
	</g>
	<g>
		<path class="st0" d="M298,429.5c-4.48,0-8.13-3.65-8.13-8.13s3.65-8.13,8.13-8.13s8.13,3.65,8.13,8.13S302.48,429.5,298,429.5z"/>
		<path class="st1" d="M298,413.74c4.21,0,7.63,3.42,7.63,7.63S302.21,429,298,429s-7.63-3.42-7.63-7.63S293.79,413.74,298,413.74
			 M298,412.74c-4.77,0-8.63,3.86-8.63,8.63c0,4.77,3.86,8.63,8.63,8.63s8.63-3.86,8.63-8.63C306.63,416.6,302.77,412.74,298,412.74
			L298,412.74z"/>
	</g>
</g>
</svg>
