<?xml version="1.0" encoding="utf-8"?>
<!-- Generator: Adobe Illustrator 25.2.1, SVG Export Plug-In . SVG Version: 6.00 Build 0)  -->
<svg version="1.1" id="Camada_1" xmlns="http://www.w3.org/2000/svg" xmlns:xlink="http://www.w3.org/1999/xlink" x="0px" y="0px"
	 viewBox="0 0 48 48" style="enable-background:new 0 0 48 48;" xml:space="preserve">
<style type="text/css">
	.st0{fill:#030304;}
	.st1{fill:#FFFFFF;}
</style>
<g>
	<g>
		<path class="st0" d="M10.56,47.59c-5.59,0-10.14-4.55-10.14-10.14V10.57c0-5.59,4.55-10.14,10.14-10.14h26.88
			c5.59,0,10.14,4.55,10.14,10.14v26.88c0,5.59-4.55,10.14-10.14,10.14H10.56z"/>
		<path class="st0" d="M37.44,0.83c5.37,0,9.73,4.37,9.73,9.73v26.88c0,5.37-4.37,9.73-9.73,9.73H10.56c-5.37,0-9.73-4.37-9.73-9.73
			V10.56c0-5.37,4.37-9.73,9.73-9.73H37.44 M37.44,0H10.56C4.73,0,0,4.73,0,10.56v26.88C0,43.27,4.73,48,10.56,48h26.88
			C43.27,48,48,43.27,48,37.44V10.56C48,4.73,43.27,0,37.44,0L37.44,0z"/>
	</g>
	<g>
		<circle class="st1" cx="39.36" cy="8.95" r="3.02"/>
		<path class="st0" d="M39.36,6.35c1.43,0,2.6,1.17,2.6,2.6s-1.17,2.6-2.6,2.6s-2.6-1.17-2.6-2.6S37.92,6.35,39.36,6.35 M39.36,5.52
			c-1.9,0-3.43,1.54-3.43,3.43c0,1.9,1.54,3.43,3.43,3.43s3.43-1.54,3.43-3.43S41.25,5.52,39.36,5.52L39.36,5.52z"/>
	</g>
	<g>
		<path class="st1" d="M24,35.82c-6.34,0-11.51-5.16-11.51-11.51S17.64,12.8,24,12.8c6.34,0,11.51,5.16,11.51,11.51
			S30.34,35.82,24,35.82z"/>
		<path class="st0" d="M24,13.22c6.12,0,11.09,4.98,11.09,11.09S30.11,35.41,24,35.41S12.9,30.43,12.9,24.31S17.88,13.22,24,13.22
			 M24,12.39c-6.58,0-11.93,5.33-11.93,11.93c0,6.58,5.33,11.93,11.93,11.93c6.58,0,11.93-5.33,11.93-11.93
			C35.92,17.73,30.58,12.39,24,12.39L24,12.39z"/>
	</g>
	<g>
		<path class="st0" d="M24,31.09c-3.73,0-6.78-3.04-6.78-6.78s3.04-6.78,6.78-6.78s6.78,3.04,6.78,6.78S27.73,31.09,24,31.09z"/>
		<path class="st0" d="M24,17.95c3.51,0,6.36,2.85,6.36,6.36S27.5,30.67,24,30.67s-6.36-2.85-6.36-6.36S20.49,17.95,24,17.95
			 M24,17.12c-3.98,0-7.19,3.22-7.19,7.19c0,3.98,3.22,7.19,7.19,7.19s7.19-3.22,7.19-7.19C31.19,20.34,27.97,17.12,24,17.12
			L24,17.12z"/>
	</g>
</g>
</svg>
