<?xml version="1.0" encoding="utf-8"?>
<!-- Generator: Adobe Illustrator 25.2.1, SVG Export Plug-In . SVG Version: 6.00 Build 0)  -->
<svg version="1.1" id="Camada_1" xmlns="http://www.w3.org/2000/svg" xmlns:xlink="http://www.w3.org/1999/xlink" x="0px" y="0px"
	 viewBox="0 0 48 48" style="enable-background:new 0 0 48 48;" xml:space="preserve">
<style type="text/css">
	.st0{fill:#030304;}
	.st1{fill:#FFFFFF;}
	.st2{font-family:'ArialMT';}
	.st3{font-size:27.8359px;}
</style>
<g>
	<g>
		<path class="st0" d="M3.89,47.84c-2.06,0-3.74-1.68-3.74-3.74V3.89c0-2.06,1.68-3.74,3.74-3.74h40.21c2.06,0,3.74,1.68,3.74,3.74
			v40.21c0,2.06-1.68,3.74-3.74,3.74L3.89,47.84L3.89,47.84z"/>
		<path class="st0" d="M44.11,0.31c1.98,0,3.58,1.61,3.58,3.58v40.21c0,1.98-1.61,3.58-3.58,3.58H3.89c-1.98,0-3.58-1.61-3.58-3.58
			V3.89c0-1.98,1.61-3.58,3.58-3.58L44.11,0.31 M44.11,0H3.89C1.74,0,0,1.75,0,3.89v40.21C0,46.26,1.75,48,3.89,48h40.21
			c2.15,0,3.89-1.75,3.89-3.89V3.89C48,1.74,46.25,0,44.11,0L44.11,0z"/>
	</g>
	<text transform="matrix(1.0061 0 0 1 14.7803 28.8574)" class="st1 st2 st3">in</text>
</g>
</svg>
