<?xml version="1.0" encoding="utf-8"?>
<!-- Generator: Adobe Illustrator 27.0.0, SVG Export Plug-In . SVG Version: 6.00 Build 0)  -->
<svg version="1.1" id="Camada_1" xmlns="http://www.w3.org/2000/svg" xmlns:xlink="http://www.w3.org/1999/xlink" x="0px" y="0px"
	 viewBox="0 0 595.28 841.89" style="enable-background:new 0 0 595.28 841.89;" xml:space="preserve">
<style type="text/css">
	.st0{fill:#010202;}
	.st1{fill:#020203;}
	.st2{fill:#FFFFFF;}
	.st3{font-family:'Harmattan-Regular';}
	.st4{font-size:88.9822px;}
</style>
<g>
	<g>
		<path class="st0" d="M222.01,442.08c-6.59,0-11.95-5.36-11.95-11.95V301.59c0-6.59,5.36-11.95,11.95-11.95h128.54
			c6.59,0,11.95,5.36,11.95,11.95v128.54c0,6.59-5.36,11.95-11.95,11.95H222.01z"/>
		<path class="st1" d="M350.55,290.14c6.32,0,11.45,5.14,11.45,11.45v128.54c0,6.32-5.14,11.45-11.45,11.45H222.01
			c-6.32,0-11.45-5.14-11.45-11.45V301.59c0-6.32,5.14-11.45,11.45-11.45H350.55 M350.55,289.14H222.01
			c-6.88,0-12.45,5.58-12.45,12.45v128.54c0,6.88,5.58,12.45,12.45,12.45h128.54c6.88,0,12.45-5.58,12.45-12.45V301.59
			C363,294.71,357.42,289.14,350.55,289.14L350.55,289.14z"/>
	</g>
	<text transform="matrix(1.0061 0 0 1 256.8066 381.3857)" class="st2 st3 st4">in</text>
</g>
</svg>
