<?xml version="1.0" encoding="utf-8"?>
<!-- Generator: Adobe Illustrator 25.2.1, SVG Export Plug-In . SVG Version: 6.00 Build 0)  -->
<svg version="1.1" id="Camada_1" xmlns="http://www.w3.org/2000/svg" xmlns:xlink="http://www.w3.org/1999/xlink" x="0px" y="0px"
	 viewBox="0 0 48 48" style="enable-background:new 0 0 48 48;" xml:space="preserve">
<style type="text/css">
	.st0{fill:#76CAE7;}
	.st1{fill:#0E7598;}
</style>
<g>
	<g>
		<rect x="0" y="0" class="st0" width="48" height="48"/>
		<g>
			<path class="st1" d="M12.34,10.07c-0.85,0.81-1.99,1.31-3.24,1.31c-1.25,0-2.39-0.5-3.24-1.31c-1.88,1.37-3.14,3.89-3.14,6.77
				c0,0.21,0.01,0.41,0.02,0.61h12.71c0.01-0.2,0.02-0.4,0.02-0.61C15.48,13.95,14.22,11.43,12.34,10.07z"/>
			<path class="st1" d="M9.1,2.38c-2.63,0-4.76,1.85-4.76,4.12c0,1.2,0.59,2.27,1.52,3.03c0.85,0.68,1.99,1.1,3.24,1.1
				c1.25,0,2.39-0.42,3.24-1.1c0.94-0.75,1.52-1.83,1.52-3.03C13.87,4.22,11.73,2.38,9.1,2.38z"/>
		</g>
	</g>
	<rect x="22.12" y="10.63" class="st1" width="20.16" height="1.96"/>
	<rect x="22.12" y="5.95" class="st1" width="20.16" height="1.96"/>
	<rect x="3.75" y="23.28" class="st1" width="38.5" height="2.33"/>
	<rect x="3.78" y="37.18" class="st1" width="34.96" height="2.82"/>
	<rect x="3.71" y="32.48" class="st1" width="38.57" height="2.53"/>
	<rect x="3.78" y="27.97" class="st1" width="34.96" height="2.34"/>
</g>
</svg>
