<?xml version="1.0" encoding="utf-8"?>
<!-- Generator: Adobe Illustrator 27.0.0, SVG Export Plug-In . SVG Version: 6.00 Build 0)  -->
<svg version="1.1" id="Camada_1" xmlns="http://www.w3.org/2000/svg" xmlns:xlink="http://www.w3.org/1999/xlink" x="0px" y="0px"
	 viewBox="0 0 595.28 841.89" style="enable-background:new 0 0 595.28 841.89;" xml:space="preserve">
<style type="text/css">
	.st0{fill:#FFFFFF;stroke:#000000;stroke-miterlimit:10;}
	.st1{fill:#2788C9;stroke:#2888C9;stroke-miterlimit:10;}
	.st2{fill:#74CAE5;stroke:#75CAE4;stroke-miterlimit:10;}
	.st3{fill:#FEF9E0;stroke:#75CAE4;stroke-miterlimit:10;}
	.st4{fill:#2B97D4;stroke:#75CAE4;stroke-miterlimit:10;}
	.st5{fill:#33B1E7;stroke:#75CAE4;stroke-miterlimit:10;}
</style>
<path class="st0" d="M-236.74,170.19"/>
<g>
	<path class="st1" d="M375.41,301.4h31.75c7.07,0,12.79,5.73,12.79,12.79v135.19c0,7.07-5.73,12.79-12.79,12.79H228.13
		c-7.07,0-12.79-5.73-12.79-12.79v-24.79"/>
	<path class="st2" d="M360.94,424.59H179.69c-7.99,0-14.47-6.48-14.47-14.47V276.2c0-7.99,6.48-14.47,14.47-14.47h181.25
		c7.99,0,14.47,6.48,14.47,14.47v133.92C375.41,418.11,368.93,424.59,360.94,424.59z"/>
	<circle class="st3" cx="325.47" cy="309.92" r="12.7"/>
	<path class="st4" d="M186.1,403.01c0,0,0-52.9,0-52.9c6.57-5.65,12.29-12.21,18.95-17.78c5.92-4.95,16.47-12.78,24.7-9.07
		c4.27,1.93,7.76,7.51,10.83,10.91c4.02,4.45,8.02,8.91,12.05,13.36c8.05,8.88,16.5,17.37,24.64,26.16
		c9.05,9.77,18.1,19.54,27.15,29.31C264.98,403.01,225.54,403.01,186.1,403.01z"/>
	<path class="st0" d="M303.73,345.24"/>
	<path class="st5" d="M277.27,373.7c9.27-7.63,20-24.51,31.8-27.95c15.79-4.6,35.51,25.45,41.88,36.68
		c2.33,4.1,5.02,9.49,5.19,14.31c0.3,8.56-3.94,6.27-11.7,6.27c-13.34,0-26.68,0-40.02,0"/>
</g>
</svg>
