<?xml version="1.0" encoding="utf-8"?>
<!-- Generator: Adobe Illustrator 25.2.1, SVG Export Plug-In . SVG Version: 6.00 Build 0)  -->
<svg version="1.1" id="Camada_1" xmlns="http://www.w3.org/2000/svg" xmlns:xlink="http://www.w3.org/1999/xlink" x="0px" y="0px"
	 viewBox="0 0 48 48" style="enable-background:new 0 0 48 48;" xml:space="preserve">
<style type="text/css">
	.st0{fill:#2B88C9;stroke:#2B88C9;stroke-miterlimit:10;}
	.st1{fill:#75CAE5;stroke:#77CAE4;stroke-miterlimit:10;}
	.st2{fill:#FEF9E2;stroke:#77CAE4;stroke-miterlimit:10;}
	.st3{fill:#3097D4;stroke:#77CAE4;stroke-miterlimit:10;}
	.st4{fill:#FFFFFF;stroke:#020203;stroke-miterlimit:10;}
	.st5{fill:#37B0E6;stroke:#77CAE4;stroke-miterlimit:10;}
</style>
<g>
	<path class="st0" d="M39.27,9.86h5.84c1.3,0,2.35,1.34,2.35,2.99v31.63c0,1.65-1.05,2.99-2.35,2.99H12.16
		c-1.3,0-2.35-1.34-2.35-2.99v-5.8"/>
	<path class="st1" d="M36.6,38.68H3.24c-1.47,0-2.66-1.52-2.66-3.39V3.96c0-1.87,1.19-3.39,2.66-3.39H36.6
		c1.47,0,2.66,1.52,2.66,3.39v31.33C39.27,37.16,38.08,38.68,36.6,38.68z"/>
	<ellipse class="st2" cx="30.08" cy="11.85" rx="2.34" ry="2.97"/>
	<path class="st3" d="M4.42,33.63V21.25c1.21-1.32,2.26-2.86,3.49-4.16c1.09-1.16,3.03-2.99,4.55-2.12
		c0.79,0.45,1.43,1.76,1.99,2.55c0.74,1.04,1.48,2.08,2.22,3.13c1.48,2.08,3.04,4.06,4.54,6.12c1.67,2.29,3.33,4.57,5,6.86
		C18.94,33.63,11.68,33.63,4.42,33.63z"/>
	<path class="st4" d="M26.07,20.11"/>
	<path class="st5" d="M21.2,26.77c1.71-1.79,3.68-5.73,5.85-6.54c2.91-1.08,6.54,5.95,7.71,8.58c0.43,0.96,0.92,2.22,0.96,3.35
		c0.06,2-0.73,1.47-2.15,1.47c-2.46,0-4.91,0-7.37,0"/>
</g>
</svg>
